<?xml version="1.0" encoding="UTF-8" standalone="no"?>
<svg width="14px" height="14px" viewBox="0 0 14 14" version="1.1" xmlns="http://www.w3.org/2000/svg" xmlns:xlink="http://www.w3.org/1999/xlink">
    <!-- Generator: sketchtool 40.3 (33839) - http://www.bohemiancoding.com/sketch -->
    <title>D6F98E0C-6590-4D1C-83E6-2E7098A89E6B</title>
    <desc>Created with sketchtool.</desc>
    <defs>
        <polygon id="path-1" points="6.99994167 14 0 14 0 0 6.99994167 0 13.9998833 0 13.9998833 14 6.99994167 14"></polygon>
    </defs>
    <g id="Full-Page" stroke="none" stroke-width="1" fill="none" fill-rule="evenodd">
        <g id="Default" transform="translate(-1010.000000, -7.000000)">
            <g id="utility" transform="translate(1010.000000, 6.000000)">
                <g id="globe-icon" transform="translate(0.000000, 1.000000)">
                    <mask id="mask-2" fill="white">
                        <use xlink:href="#path-1"></use>
                    </mask>
                    <g id="Clip-2"></g>
                    <path d="M11.0633833,6.41666667 C11.0097167,5.60641667 10.8434667,4.82416667 10.5838833,4.09266667 C10.9443833,3.90308333 11.2891333,3.68783333 11.61055,3.4405 C12.2621333,4.28166667 12.6926333,5.30191667 12.8034667,6.41666667 L11.0633833,6.41666667 Z M10.1137167,10.9841667 C10.35405,11.1136667 10.5862167,11.25425 10.8038,11.4129167 C10.3114667,11.8381667 9.74855,12.1805833 9.13371667,12.42325 C9.50996667,11.9915833 9.83838333,11.5074167 10.1137167,10.9841667 L10.1137167,10.9841667 Z M3.88605,10.9841667 C4.16196667,11.5074167 4.4898,11.9915833 4.86605,12.42325 C4.2518,12.1805833 3.6883,11.8381667 3.19655,11.4129167 C3.41355,11.25425 3.64571667,11.1136667 3.88605,10.9841667 L3.88605,10.9841667 Z M3.88605,3.01583333 C3.64571667,2.88633333 3.41355,2.74575 3.19655,2.58708333 C3.68888333,2.16183333 4.2518,1.81883333 4.86605,1.57616667 C4.4898,2.00841667 4.16196667,2.49258333 3.88605,3.01583333 L3.88605,3.01583333 Z M9.13371667,1.57616667 C9.74796667,1.81883333 10.3114667,2.16183333 10.8038,2.58708333 C10.5862167,2.74575 10.35405,2.88633333 10.1137167,3.01583333 C9.8378,2.49258333 9.50996667,2.00841667 9.13371667,1.57616667 L9.13371667,1.57616667 Z M7.58321667,3.76541667 L7.58321667,1.68991667 C8.16538333,2.16766667 8.66005,2.77258333 9.0398,3.46966667 C8.57196667,3.61841667 8.0843,3.72225 7.58321667,3.76541667 L7.58321667,3.76541667 Z M7.58321667,6.41666667 L7.58321667,4.93266667 C8.25171667,4.88541667 8.89805,4.75416667 9.51055,4.54883333 C9.71238333,5.138 9.84305,5.76566667 9.89205,6.41666667 L7.58321667,6.41666667 Z M7.58321667,9.06733333 L7.58321667,7.58333333 L9.89205,7.58333333 C9.84305,8.23433333 9.71238333,8.862 9.51055,9.45116667 C8.89805,9.24583333 8.25171667,9.11458333 7.58321667,9.06733333 L7.58321667,9.06733333 Z M7.58321667,10.2345833 C8.0843,10.27775 8.57255,10.3815833 9.04038333,10.5303333 C8.66005,11.2274167 8.16596667,11.8329167 7.58321667,12.3100833 L7.58321667,10.2345833 Z M6.41655,10.2345833 L6.41655,12.3100833 C5.83438333,11.8329167 5.33971667,11.2274167 4.95996667,10.5303333 C5.4278,10.3815833 5.91546667,10.27775 6.41655,10.2345833 L6.41655,10.2345833 Z M6.41655,7.58333333 L6.41655,9.06733333 C5.74805,9.11458333 5.1023,9.24583333 4.48921667,9.45116667 C4.28796667,8.862 4.15671667,8.23433333 4.10771667,7.58333333 L6.41655,7.58333333 Z M6.41655,4.93266667 L6.41655,6.41666667 L4.10771667,6.41666667 C4.15671667,5.76566667 4.28796667,5.138 4.48921667,4.54883333 C5.1023,4.75416667 5.74805,4.88541667 6.41655,4.93266667 L6.41655,4.93266667 Z M6.41655,3.76541667 C5.91546667,3.72225 5.4278,3.61841667 4.95996667,3.46966667 C5.33971667,2.77258333 5.83438333,2.16708333 6.41655,1.68991667 L6.41655,3.76541667 Z M2.38921667,3.4405 C2.71063333,3.68783333 3.05538333,3.90308333 3.41646667,4.09266667 C3.1563,4.82416667 2.99005,5.60641667 2.93638333,6.41666667 L1.1963,6.41666667 C1.30713333,5.30191667 1.73821667,4.28166667 2.38921667,3.4405 L2.38921667,3.4405 Z M1.1963,7.58333333 L2.93638333,7.58333333 C2.99005,8.39358333 3.1563,9.17583333 3.41646667,9.90733333 C3.05538333,10.0969167 2.71063333,10.3121667 2.38921667,10.5595 C1.73821667,9.71833333 1.30713333,8.69808333 1.1963,7.58333333 L1.1963,7.58333333 Z M11.61055,10.5595 C11.2891333,10.3121667 10.9449667,10.0969167 10.5838833,9.90733333 C10.8434667,9.17583333 11.0097167,8.39358333 11.0633833,7.58333333 L12.8034667,7.58333333 C12.6926333,8.69808333 12.2621333,9.71833333 11.61055,10.5595 L11.61055,10.5595 Z M6.99988333,0 C3.13996667,0 -0.000116666667,3.14008333 -0.000116666667,7 C-0.000116666667,10.8599167 3.13996667,14 6.99988333,14 C10.8598,14 13.9998833,10.8599167 13.9998833,7 C13.9998833,3.14008333 10.8598,0 6.99988333,0 L6.99988333,0 Z" id="Fill-1" fill="#7A7A7A" mask="url(#mask-2)"></path>
                </g>
            </g>
        </g>
    </g>
</svg>